<svg width="34" height="34" viewBox="0 0 34 34" fill="none" xmlns="http://www.w3.org/2000/svg">
<path d="M7.90448 16.714C7.90448 16.4359 8.01149 16.1692 8.20199 15.9725C8.39248 15.7759 8.65085 15.6654 8.92025 15.6654L22.7246 15.6654L21.4041 14.3128C21.2128 14.1154 21.1053 13.8476 21.1053 13.5684C21.1053 13.2891 21.2128 13.0213 21.4041 12.8239C21.5953 12.6264 21.8548 12.5155 22.1253 12.5155C22.3958 12.5155 22.6552 12.6264 22.8465 12.8239L25.8938 15.9695C26.0347 16.117 26.1302 16.3042 26.1681 16.5076C26.2061 16.711 26.1849 16.9215 26.1071 17.1124C26.0309 17.3039 25.9015 17.4678 25.7352 17.5835C25.5689 17.6992 25.3731 17.7615 25.1726 17.7625L8.92025 17.7625C8.65085 17.7625 8.39248 17.652 8.20199 17.4554C8.01149 17.2587 7.90448 16.9921 7.90448 16.714Z" fill="#444444"/>
<path d="M21.1095 19.8596C21.1087 19.7216 21.1343 19.5848 21.1849 19.457C21.2354 19.3293 21.3099 19.2131 21.404 19.1151L24.4514 15.9695C24.6426 15.7721 24.902 15.6611 25.1725 15.6611C25.3065 15.6611 25.4391 15.6884 25.5629 15.7413C25.6866 15.7942 25.799 15.8717 25.8937 15.9695C25.9885 16.0673 26.0636 16.1833 26.1148 16.3111C26.1661 16.4388 26.1925 16.5757 26.1925 16.714C26.1925 16.9932 26.085 17.261 25.8937 17.4584L22.8464 20.604C22.752 20.7023 22.6397 20.7803 22.5159 20.8336C22.3921 20.8868 22.2593 20.9142 22.1252 20.9142C21.9911 20.9142 21.8584 20.8868 21.7346 20.8336C21.6108 20.7803 21.4985 20.7023 21.404 20.604C21.3099 20.5061 21.2354 20.3899 21.1849 20.2621C21.1343 20.1344 21.1087 19.9976 21.1095 19.8596Z" fill="#444444"/>
</svg>
