<svg xmlns="http://www.w3.org/2000/svg" xmlns:xlink="http://www.w3.org/1999/xlink" width="1080" zoomAndPan="magnify" viewBox="0 0 810 809.999993" height="1080" preserveAspectRatio="xMidYMid meet" version="1.0"><path fill="#fc8718" d="M 487.503906 729 C 581.90625 613.527344 533.796875 480.039062 342.398438 328.535156 C 475.3125 402.925781 549.226562 484.054688 563.878906 571.664062 C 575.679688 479.519531 513.566406 379.859375 390.507812 300.023438 C 232.4375 213.710938 228.285156 440.640625 345.511719 547.820312 C 400.492188 597.714844 486.855469 641 487.503906 729 Z M 504.75 156.558594 L 504.101562 156.167969 L 503.710938 155.777344 L 503.0625 155.390625 L 502.546875 154.871094 L 501.25 153.574219 L 500.601562 152.929688 L 499.953125 152.28125 L 499.5625 152.28125 L 498.914062 151.890625 L 498.914062 151.503906 L 498.265625 151.113281 L 496.96875 149.816406 L 495.933594 149.429688 L 495.933594 149.039062 L 495.285156 148.652344 L 494.636719 148.003906 L 494.246094 148.003906 L 493.597656 147.613281 L 493.597656 147.226562 L 492.949219 146.835938 L 492.300781 146.1875 L 491.910156 146.1875 L 491.261719 145.800781 L 491.261719 145.410156 L 490.617188 145.023438 L 490.226562 145.023438 L 489.449219 144.246094 L 488.800781 143.855469 C 488.410156 143.46875 487.890625 143.207031 487.242188 142.820312 L 486.59375 142.429688 L 485.945312 141.78125 L 485.558594 141.78125 L 484.910156 141.394531 L 483.742188 140.355469 L 483.355469 140.355469 L 482.964844 139.96875 L 482.574219 139.578125 L 481.667969 139.191406 L 481.796875 139.191406 L 481.410156 138.800781 L 481.019531 138.414062 L 480.371094 138.023438 L 479.980469 138.023438 L 479.59375 137.636719 C 478.683594 137.246094 478.035156 136.988281 477.128906 136.46875 L 476.742188 136.46875 L 476.351562 136.078125 L 475.703125 136.078125 L 475.3125 135.691406 L 473.757812 135.042969 L 473.109375 134.65625 L 472.460938 134.265625 L 472.070312 134.265625 L 471.421875 133.875 L 471.035156 133.488281 L 470.644531 133.488281 L 469.996094 133.097656 L 470.128906 133.097656 L 469.738281 132.710938 L 469.089844 132.710938 L 468.699219 132.320312 L 468.050781 132.320312 L 467.664062 131.933594 L 467.015625 131.933594 L 467.015625 131.542969 L 466.367188 131.542969 L 465.328125 131.15625 L 464.941406 131.15625 L 464.941406 130.765625 L 464.292969 130.765625 L 463.382812 130.378906 L 462.734375 129.988281 L 462.347656 129.988281 L 461.699219 129.601562 L 460.789062 129.601562 L 460.789062 129.210938 L 459.882812 129.210938 L 459.234375 128.824219 L 458.84375 128.824219 L 458.195312 128.433594 L 457.808594 128.433594 L 457.160156 128.042969 L 456.121094 128.042969 L 455.214844 127.65625 L 454.308594 127.265625 L 453.660156 127.265625 L 452.621094 126.878906 C 427.207031 121.304688 404.511719 103.9375 389.601562 81 C 384.671875 99.921875 388.5625 119.75 400.105469 135.300781 L 402.957031 135.691406 L 405.808594 136.078125 L 408.660156 136.078125 L 410.867188 136.46875 L 411.253906 136.46875 L 413.71875 136.859375 L 416.703125 136.859375 L 418.90625 137.246094 L 419.296875 137.246094 L 421.5 137.636719 L 424.351562 137.636719 L 426.167969 138.023438 L 426.816406 138.023438 L 428.632812 138.414062 L 429.28125 138.414062 L 430.835938 138.800781 L 433.039062 138.800781 L 434.078125 139.191406 L 436.28125 139.191406 L 437.839844 139.578125 L 439.652344 139.96875 L 442.246094 139.96875 L 442.246094 140.355469 L 446.007812 140.746094 L 447.304688 140.746094 L 448.472656 141.132812 L 449.507812 141.132812 L 450.417969 141.523438 L 451.324219 141.523438 L 452.363281 141.910156 L 454.308594 141.910156 L 454.695312 142.300781 L 456.640625 142.300781 L 457.546875 142.691406 L 459.105469 143.078125 L 460.402344 143.078125 L 461.957031 143.46875 L 462.347656 143.46875 L 463.902344 143.855469 L 465.070312 144.246094 L 465.71875 144.246094 L 466.625 144.632812 L 467.273438 144.632812 L 468.441406 145.023438 L 468.832031 145.023438 L 469.996094 145.410156 L 470.644531 145.410156 L 471.554688 145.800781 L 472.589844 145.800781 Z M 553.636719 216.433594 L 553.636719 216.042969 C 553.246094 214.875 552.730469 213.839844 552.46875 212.933594 C 552.082031 211.894531 551.820312 211.117188 551.5625 210.082031 L 550.914062 208.914062 C 550.523438 207.878906 550.265625 207.359375 550.003906 206.710938 C 540.667969 187.789062 524.199219 172.886719 503.453125 166.277344 C 499.433594 166.277344 495.285156 165.886719 491.265625 165.628906 C 456.253906 156.039062 413.332031 154.742188 378.835938 147.355469 C 337.859375 134.394531 317.113281 115.214844 316.464844 89.8125 C 316.464844 88.777344 316.464844 88 316.464844 86.960938 C 315.816406 88.777344 314.910156 90.589844 314.261719 92.535156 C 299.996094 131.933594 311.148438 157.335938 333.839844 176.125 C 349.402344 189.863281 371.445312 201.527344 400.882812 211.117188 C 405.289062 212.285156 409.828125 213.582031 414.238281 214.875 C 439.652344 224.207031 464.160156 233.539062 481.019531 245.59375 C 499.042969 259.847656 505.917969 276.046875 501.898438 294.710938 C 501.507812 295.875 501.25 297.171875 500.988281 298.46875 C 524.332031 314.410156 537.039062 326.074219 538.59375 333.460938 L 538.984375 332.8125 L 540.28125 331.515625 L 540.667969 330.867188 L 541.058594 330.222656 L 541.707031 329.183594 L 542.09375 328.535156 L 542.742188 327.886719 L 543.132812 327.238281 L 543.523438 326.59375 L 543.910156 325.945312 L 544.300781 324.90625 L 544.6875 324.257812 L 545.335938 323.609375 L 545.726562 322.964844 L 545.726562 321.925781 L 546.117188 321.277344 L 546.503906 320.628906 L 546.894531 319.59375 L 547.28125 318.945312 L 547.671875 318.296875 L 547.671875 317.261719 L 548.058594 316.613281 L 548.058594 315.574219 L 548.449219 314.929688 L 548.449219 314.28125 L 548.839844 313.242188 L 548.839844 311.558594 L 549.226562 310.910156 L 549.226562 302.226562 L 548.839844 301.191406 L 548.839844 299.503906 L 548.449219 298.859375 L 548.449219 298.210938 L 548.058594 297.171875 L 548.058594 296.523438 L 547.671875 295.488281 L 547.28125 294.839844 L 547.28125 294.191406 L 546.894531 293.15625 L 546.503906 292.507812 L 546.117188 291.859375 L 545.726562 290.824219 L 545.335938 290.175781 L 544.949219 289.527344 L 544.558594 288.488281 L 544.171875 287.839844 L 543.78125 287.195312 L 543.390625 286.15625 L 542.742188 285.507812 L 542.355469 284.859375 L 541.964844 284.210938 L 543.261719 282.140625 C 557.527344 262.308594 561.546875 237.167969 554.414062 213.839844 Z M 423.703125 251.164062 C 428.632812 248.054688 434.855469 247.796875 440.433594 250.128906 L 439.652344 250.128906 L 439.652344 250.515625 L 436.542969 250.515625 L 436.152344 250.90625 L 434.984375 250.90625 L 434.984375 251.292969 L 433.820312 251.292969 L 433.820312 251.683594 L 433.039062 251.683594 L 432.652344 252.070312 L 431.875 252.070312 L 431.484375 252.460938 L 432.523438 252.460938 L 432.523438 252.851562 L 432.132812 252.851562 L 431.742188 253.238281 L 431.355469 253.238281 L 431.355469 253.628906 L 430.835938 253.628906 L 430.835938 254.015625 L 430.445312 254.40625 L 430.058594 254.40625 L 429.667969 254.792969 L 429.28125 254.792969 L 429.28125 255.183594 L 428.890625 255.570312 L 428.5 255.570312 L 428.5 255.960938 L 428.632812 255.960938 L 428.632812 256.347656 L 428.242188 256.347656 L 428.242188 256.738281 L 427.855469 256.738281 L 427.855469 257.125 L 427.464844 257.515625 L 427.074219 257.902344 L 426.6875 258.292969 L 426.6875 258.683594 L 426.296875 259.070312 L 425.910156 259.460938 L 425.910156 259.847656 L 426.039062 259.847656 L 426.039062 260.625 L 425.777344 260.625 L 425.777344 261.015625 L 425.390625 261.402344 L 425.390625 262.179688 L 425 262.570312 C 422.535156 268.789062 424.09375 276.308594 429.410156 280.585938 C 434.726562 285.25 442.117188 285.898438 448.082031 282.140625 C 454.046875 278.121094 461.4375 277.472656 467.921875 279.9375 C 456.382812 248.960938 426.296875 229.003906 393.359375 230.816406 C 405.160156 239.5 412.941406 253.109375 414.496094 267.753906 C 415.40625 259.589844 418.90625 254.273438 423.703125 251.164062 Z M 504.75 156.558594 L 505.398438 157.203125 C 505.007812 157.203125 504.75 156.816406 504.492188 156.558594 L 504.101562 156.167969 L 503.710938 156.167969 L 503.710938 155.777344 L 503.0625 155.390625 L 502.675781 155 L 502.546875 154.871094 L 502.15625 154.871094 L 501.765625 154.484375 L 501.378906 154.09375 L 500.730469 153.707031 L 500.339844 153.707031 L 499.953125 153.316406 L 499.5625 152.929688 L 499.171875 152.929688 L 498.523438 152.539062 L 498.65625 152.539062 L 498.007812 152.152344 L 498.007812 152.28125 L 497.359375 151.890625 L 496.96875 151.890625 L 496.320312 151.503906 L 496.0625 151.503906 L 495.671875 151.113281 L 495.023438 150.726562 L 494.765625 150.726562 L 493.855469 150.335938 L 493.207031 149.945312 L 493.339844 149.945312 L 492.429688 149.558594 L 491.523438 149.167969 L 491.132812 148.78125 L 490.097656 148.390625 L 488.929688 148.003906 L 487.761719 147.613281 L 486.855469 147.226562 L 485.6875 146.835938 L 485.296875 146.835938 L 484.132812 146.449219 L 482.964844 145.800781 L 481.796875 145.410156 L 481.410156 145.410156 L 480.5 145.023438 L 480.113281 145.023438 L 478.945312 144.632812 L 478.554688 144.632812 L 477.390625 144.246094 L 477 144.246094 L 475.960938 143.855469 Z M 504.75 156.558594 " fill-opacity="1" fill-rule="evenodd"/></svg>