<svg width="58" height="58" viewBox="0 0 58 58" fill="none" xmlns="http://www.w3.org/2000/svg">
<rect opacity="0.5" x="0.831177" y="0.859772" width="56.2078" height="56.2078" rx="14.0519" fill="#444444" fill-opacity="0.25"/>
<g clip-path="url(#clip0_55_402)">
<path fill-rule="evenodd" clip-rule="evenodd" d="M43.2066 20.1812C43.2066 18.7255 42.628 17.3294 41.5989 16.2999C40.5697 15.2704 39.1732 14.6922 37.7176 14.6922C32.8444 14.6922 25.0258 14.6922 20.1526 14.6922C18.6969 14.6922 17.3005 15.2704 16.2713 16.2999C15.2421 17.3294 14.6636 18.7255 14.6636 20.1812C14.6636 24.0128 14.6636 28.9637 14.6636 28.9637C14.6636 29.5699 15.1548 30.0615 15.7614 30.0615H42.1088C42.7153 30.0615 43.2066 29.5699 43.2066 28.9637V20.1812ZM41.011 27.8659V20.1812C41.011 19.3076 40.6641 18.47 40.0466 17.8525C39.4285 17.2347 38.5909 16.8878 37.7176 16.8878C32.8444 16.8878 25.0258 16.8878 20.1526 16.8878C19.2793 16.8878 18.4417 17.2347 17.8236 17.8525C17.2061 18.47 16.8592 19.3076 16.8592 20.1812V27.8659H41.011Z" fill="#444444"/>
<path fill-rule="evenodd" clip-rule="evenodd" d="M16.8592 30.0615V37.7461C16.8592 38.6197 17.2061 39.4573 17.8236 40.0748C18.4417 40.6926 19.2793 41.0395 20.1526 41.0395C25.0258 41.0395 32.8444 41.0395 37.7176 41.0395C38.5909 41.0395 39.4285 40.6926 40.0466 40.0748C40.6641 39.4573 41.011 38.6197 41.011 37.7461C41.011 37.1401 41.5028 36.6483 42.1088 36.6483C42.7148 36.6483 43.2066 37.1401 43.2066 37.7461C43.2066 39.2018 42.628 40.598 41.5989 41.6274C40.5697 42.6569 39.1732 43.2352 37.7176 43.2352C32.8444 43.2352 25.0258 43.2352 20.1526 43.2352C18.6969 43.2352 17.3005 42.6569 16.2713 41.6274C15.2421 40.598 14.6636 39.2018 14.6636 37.7461V28.9637C14.6636 28.3574 15.1548 27.8658 15.7614 27.8658H42.1088C42.7153 27.8658 43.2066 28.3574 43.2066 28.9637C43.2066 28.9637 43.2066 30.9364 43.2066 33.3549C43.2066 33.9609 42.7148 34.4527 42.1088 34.4527C41.5028 34.4527 41.011 33.9609 41.011 33.3549V30.0615H16.8592Z" fill="#444444"/>
<path d="M24.5439 20.1812H20.1526V24.5724H24.5439V20.1812Z" fill="#FC8718"/>
<path fill-rule="evenodd" clip-rule="evenodd" d="M25.6417 20.1812C25.6417 19.5747 25.1504 19.0834 24.5439 19.0834H20.1526C19.5461 19.0834 19.0548 19.5747 19.0548 20.1812V24.5724C19.0548 25.179 19.5461 25.6703 20.1526 25.6703H24.5439C25.1504 25.6703 25.6417 25.179 25.6417 24.5724V20.1812ZM21.2504 21.279V23.4746H23.446V21.279H21.2504Z" fill="#444444"/>
<path fill-rule="evenodd" clip-rule="evenodd" d="M28.9351 21.279H37.7176C38.3236 21.279 38.8155 20.7872 38.8155 20.1812C38.8155 19.5752 38.3236 19.0834 37.7176 19.0834H28.9351C28.3291 19.0834 27.8373 19.5752 27.8373 20.1812C27.8373 20.7872 28.3291 21.279 28.9351 21.279Z" fill="#444444"/>
<path fill-rule="evenodd" clip-rule="evenodd" d="M28.9351 25.6703H37.7176C38.3236 25.6703 38.8155 25.1784 38.8155 24.5724C38.8155 23.9665 38.3236 23.4746 37.7176 23.4746H28.9351C28.3291 23.4746 27.8373 23.9665 27.8373 24.5724C27.8373 25.1784 28.3291 25.6703 28.9351 25.6703Z" fill="#444444"/>
<path fill-rule="evenodd" clip-rule="evenodd" d="M40.8227 40.8513C39.9993 41.6746 38.8823 42.1374 37.7175 42.1374H28.9351L25.6416 38.8439L32.2285 32.2571L40.8227 40.8513ZM28.9351 42.1374H20.1526C18.9878 42.1374 17.8708 41.6746 17.0475 40.8513L22.3482 35.5505L28.9351 42.1374Z" fill="#FC8718"/>
<path fill-rule="evenodd" clip-rule="evenodd" d="M25.6417 37.2916L31.4524 31.4809C31.8811 31.0523 32.576 31.0523 33.0047 31.4809L41.5989 40.0751C42.0265 40.5027 42.0276 41.196 41.6011 41.6252C41.6011 41.6252 41.6011 41.6252 41.5989 41.6274C40.5697 42.6566 39.1733 43.2352 37.7176 43.2352H28.9351H20.1526C18.6969 43.2352 17.3005 42.6566 16.2713 41.6274L16.2691 41.6252C15.8426 41.196 15.8437 40.5027 16.2713 40.0751L21.5721 34.7744C22.0008 34.3457 22.6957 34.3457 23.1244 34.7744L25.6417 37.2916ZM39.137 40.7179L32.2285 33.8094L27.194 38.8439L29.3896 41.0396H37.7176C38.2138 41.0396 38.6984 40.9276 39.137 40.7179ZM26.285 41.0396L22.3482 37.1028L18.7332 40.7179C19.1723 40.9276 19.657 41.0396 20.1526 41.0396H26.285Z" fill="#444444"/>
</g>
<defs>
<clipPath id="clip0_55_402">
<rect width="35.1299" height="35.1299" fill="white" transform="translate(11.3701 11.3987)"/>
</clipPath>
</defs>
</svg>
