<svg width="57" height="58" viewBox="0 0 57 58" fill="none" xmlns="http://www.w3.org/2000/svg">
<rect opacity="0.5" x="0.415588" y="0.859772" width="56.2078" height="56.2078" rx="14.0519" fill="#444444" fill-opacity="0.25"/>
<path fill-rule="evenodd" clip-rule="evenodd" d="M42.791 27.8659V21.279C42.791 19.8233 42.2125 18.4269 41.1833 17.3977C40.1541 16.3685 38.7577 15.79 37.302 15.79C32.4288 15.79 24.6102 15.79 19.737 15.79C18.2813 15.79 16.8849 16.3685 15.8557 17.3977C14.8265 18.4269 14.248 19.8233 14.248 21.279C14.248 26.1522 14.248 33.9708 14.248 38.844C14.248 40.2997 14.8265 41.6961 15.8557 42.7253C16.8849 43.7545 18.2813 44.333 19.737 44.333C24.6102 44.333 32.4288 44.333 37.302 44.333C38.7577 44.333 40.1541 43.7545 41.1833 42.7253C42.2125 41.6961 42.791 40.2997 42.791 38.844C42.791 38.4927 42.791 32.6369 42.791 32.2571C42.791 31.6511 42.2992 31.1593 41.6932 31.1593C41.0872 31.1593 40.5954 31.6511 40.5954 32.2571V38.844C40.5954 39.7173 40.2485 40.5549 39.631 41.173C39.0129 41.7905 38.1753 42.1374 37.302 42.1374C32.4288 42.1374 24.6102 42.1374 19.737 42.1374C18.8637 42.1374 18.0261 41.7905 17.408 41.173C16.7905 40.5549 16.4436 39.7173 16.4436 38.844C16.4436 33.9708 16.4436 26.1522 16.4436 21.279C16.4436 20.4057 16.7905 19.5681 17.408 18.95C18.0261 18.3325 18.8637 17.9856 19.737 17.9856C24.6102 17.9856 32.4288 17.9856 37.302 17.9856C38.1753 17.9856 39.0129 18.3325 39.631 18.95C40.2485 19.5681 40.5954 20.4057 40.5954 21.279C40.5954 24.8595 40.5954 23.4423 40.5954 27.8659C40.5954 28.4719 41.0872 28.9637 41.6932 28.9637C42.2992 28.9637 42.791 28.4719 42.791 27.8659Z" fill="#444444"/>
<path fill-rule="evenodd" clip-rule="evenodd" d="M41.6932 21.2783C41.6932 20.1138 41.2305 18.9967 40.4071 18.1732C39.5838 17.3499 38.4667 16.8871 37.302 16.8871C32.4288 16.8871 24.6102 16.8871 19.737 16.8871C18.5723 16.8871 17.4552 17.3499 16.6319 18.1732C15.8085 18.9967 15.3458 20.1138 15.3458 21.2783C15.3458 23.4739 15.3458 25.6695 15.3458 25.6695H41.6932V21.2783Z" fill="#FC8718"/>
<path fill-rule="evenodd" clip-rule="evenodd" d="M42.791 21.2783C42.791 19.8225 42.2125 18.4264 41.1833 17.3971C40.1541 16.3677 38.7577 15.7893 37.302 15.7893C32.4288 15.7893 24.6102 15.7893 19.737 15.7893C18.2813 15.7893 16.8849 16.3677 15.8557 17.3971C14.8265 18.4264 14.248 19.8225 14.248 21.2783C14.248 23.4739 14.248 25.6695 14.248 25.6695C14.248 26.2759 14.7393 26.7673 15.3458 26.7673H41.6932C42.2997 26.7673 42.791 26.2759 42.791 25.6695V21.2783ZM40.5954 24.5717V21.2783C40.5954 20.4048 40.2485 19.5672 39.631 18.9495C39.0129 18.3318 38.1753 17.9849 37.302 17.9849C32.4288 17.9849 24.6102 17.9849 19.737 17.9849C18.8637 17.9849 18.0261 18.3318 17.408 18.9495C16.7905 19.5672 16.4436 20.4048 16.4436 21.2783V24.5717H40.5954Z" fill="#444444"/>
<path fill-rule="evenodd" clip-rule="evenodd" d="M21.9334 22.3768H35.1072C35.7132 22.3768 36.2052 21.885 36.2052 21.279C36.2052 20.673 35.7132 20.1812 35.1072 20.1812H21.9334C21.3274 20.1812 20.8354 20.673 20.8354 21.279C20.8354 21.885 21.3274 22.3768 21.9334 22.3768Z" fill="#444444"/>
<path fill-rule="evenodd" clip-rule="evenodd" d="M23.0305 25.6703V43.2352C23.0305 43.8412 23.5223 44.333 24.1283 44.333C24.7343 44.333 25.2261 43.8412 25.2261 43.2352V25.6703C25.2261 25.0643 24.7343 24.5724 24.1283 24.5724C23.5223 24.5724 23.0305 25.0643 23.0305 25.6703Z" fill="#444444"/>
<path fill-rule="evenodd" clip-rule="evenodd" d="M31.8129 25.6703V43.2352C31.8129 43.8412 32.3047 44.333 32.9107 44.333C33.5167 44.333 34.0085 43.8412 34.0085 43.2352V25.6703C34.0085 25.0643 33.5167 24.5724 32.9107 24.5724C32.3047 24.5724 31.8129 25.0643 31.8129 25.6703Z" fill="#444444"/>
<path fill-rule="evenodd" clip-rule="evenodd" d="M41.6932 33.3549H15.3458C14.7398 33.3549 14.2483 33.8467 14.2483 34.4527C14.2483 35.0587 14.7398 35.5505 15.3458 35.5505H41.6932C42.2992 35.5505 42.7907 35.0587 42.7907 34.4527C42.7907 33.8467 42.2992 33.3549 41.6932 33.3549Z" fill="#444444"/>
<path fill-rule="evenodd" clip-rule="evenodd" d="M23.0305 17.9856V14.6921C23.0305 14.0861 22.5386 13.5946 21.9326 13.5946C21.3267 13.5946 20.8348 14.0861 20.8348 14.6921V17.9856C20.8348 18.5915 21.3267 19.0831 21.9326 19.0831C22.5386 19.0831 23.0305 18.5915 23.0305 17.9856Z" fill="#444444"/>
<path fill-rule="evenodd" clip-rule="evenodd" d="M36.2042 17.9856V14.6921C36.2042 14.0861 35.7123 13.5946 35.1064 13.5946C34.5004 13.5946 34.0085 14.0861 34.0085 14.6921V17.9856C34.0085 18.5915 34.5004 19.0831 35.1064 19.0831C35.7123 19.0831 36.2042 18.5915 36.2042 17.9856Z" fill="#444444"/>
</svg>
