<svg width="57" height="58" viewBox="0 0 57 58" fill="none" xmlns="http://www.w3.org/2000/svg">
<rect opacity="0.5" y="0.859772" width="56.2078" height="56.2078" rx="14.0519" fill="#444444" fill-opacity="0.25"/>
<path fill-rule="evenodd" clip-rule="evenodd" d="M38.1925 32.2191C36.8184 32.9441 35.2535 33.3544 33.5937 33.3544C28.1406 33.3544 23.7134 28.9273 23.7134 23.4742C23.7134 18.0211 28.1406 13.594 33.5937 13.594C38.6288 13.594 42.7889 17.3688 43.3973 22.2403C43.4723 22.8415 43.0452 23.3908 42.444 23.4658C41.8428 23.5409 41.2939 23.1137 41.2188 22.5125C40.7454 18.7241 37.5094 15.7896 33.5937 15.7896C29.3525 15.7896 25.909 19.2331 25.909 23.4742C25.909 27.7153 29.3525 31.1588 33.5937 31.1588C34.9925 31.1588 36.3046 30.7844 37.4348 30.1301C37.5482 30.0646 37.8471 29.9293 38.3134 29.994C38.7362 30.0522 39.7757 30.3381 40.7374 30.6179C40.4575 29.6562 40.1717 28.6167 40.1134 28.194C40.0487 27.7277 40.1841 27.4287 40.2495 27.3153C40.4276 27.0079 40.5849 26.6874 40.7194 26.3552C40.947 25.7936 41.5877 25.5225 42.1489 25.75C42.7106 25.9776 42.9817 26.6183 42.7541 27.18C42.6304 27.4854 42.4915 27.7836 42.3386 28.073L43.4236 31.9277C43.5461 32.3177 43.4416 32.7437 43.1525 33.0331C42.8631 33.3221 42.4372 33.4267 42.0471 33.3041L38.1925 32.2191Z" fill="#444444"/>
<path fill-rule="evenodd" clip-rule="evenodd" d="M30.2995 22.3768H36.8864C37.4924 22.3768 37.9842 21.885 37.9842 21.279C37.9842 20.673 37.4924 20.1812 36.8864 20.1812H30.2995C29.6935 20.1812 29.2017 20.673 29.2017 21.279C29.2017 21.885 29.6935 22.3768 30.2995 22.3768Z" fill="#444444"/>
<path fill-rule="evenodd" clip-rule="evenodd" d="M30.2995 26.7681H36.8864C37.4924 26.7681 37.9842 26.2762 37.9842 25.6703C37.9842 25.0643 37.4924 24.5724 36.8864 24.5724H30.2995C29.6935 24.5724 29.2017 25.0643 29.2017 25.6703C29.2017 26.2762 29.6935 26.7681 30.2995 26.7681Z" fill="#444444"/>
<path fill-rule="evenodd" clip-rule="evenodd" d="M13.7945 33.8325C13.1177 32.5409 12.7346 31.0709 12.7346 29.5126C12.7346 24.3622 16.9156 20.1812 22.0659 20.1812C23.2241 20.1812 24.3329 20.3931 25.3566 20.779C25.8567 20.9678 26.1481 21.4893 26.0471 22.014C25.956 22.4866 25.9083 22.9751 25.9083 23.4746C25.9083 26.6149 27.7959 29.3172 30.4971 30.5094C30.9862 30.7251 31.2486 31.2619 31.119 31.7801C30.1046 35.836 26.4336 38.844 22.0659 38.844C20.5076 38.844 19.0376 38.4608 17.7461 37.784L14.1612 38.7935C13.7709 38.9159 13.3455 38.8116 13.0562 38.5223C12.7669 38.233 12.6626 37.8076 12.7851 37.4174L13.7945 33.8325ZM23.7533 22.5783C23.2126 22.4465 22.6472 22.3768 22.0659 22.3768C18.1275 22.3768 14.9302 25.5742 14.9302 29.5126C14.9302 30.8113 15.2776 32.0299 15.8853 33.0794C15.95 33.1908 16.0856 33.4867 16.0219 33.9466C15.9692 34.327 15.7206 35.2393 15.4687 36.1099C16.3392 35.8579 17.2515 35.6093 17.6319 35.5566C18.0919 35.4929 18.3877 35.6285 18.4991 35.6932C19.5487 36.3009 20.7672 36.6483 22.0659 36.6483C25.1019 36.6483 27.6971 34.7486 28.7274 32.0738C25.7337 30.3755 23.7126 27.1594 23.7126 23.4746C23.7126 23.1727 23.7264 22.8736 23.7533 22.5783Z" fill="#444444"/>
<path fill-rule="evenodd" clip-rule="evenodd" d="M30.0498 31.5117C31.1339 31.9909 32.3327 32.2571 33.593 32.2571C35.1919 32.2571 36.6921 31.8289 37.9842 31.0808C38.0446 31.0457 38.3838 31.1126 38.8493 31.2301C39.6891 32.4613 40.1798 33.9488 40.1798 35.5505C40.1798 36.9497 39.8049 38.2621 39.1506 39.3928C39.0354 39.591 40.1798 43.2352 40.1798 43.2352C40.1798 43.2352 36.5356 42.0907 36.3375 42.206C35.2067 42.8603 33.8943 43.2352 32.4952 43.2352C28.8241 43.2352 25.7502 40.6553 24.9905 37.211C27.4837 36.2619 29.3982 34.1365 30.0542 31.5139L30.0498 31.5117Z" fill="#FC8718"/>
<path fill-rule="evenodd" clip-rule="evenodd" d="M28.9651 31.3404C28.9794 31.2482 29.0063 31.156 29.0464 31.066C29.2923 30.5127 29.9394 30.2629 30.4933 30.5077C31.4418 30.9271 32.4902 31.1593 33.5929 31.1593C34.9915 31.1593 36.304 30.7849 37.4342 30.1307C37.55 30.0637 37.7597 29.9665 38.0775 29.9742C38.2504 29.9781 38.633 30.0434 39.1171 30.1652C39.3778 30.2311 39.6051 30.3897 39.7566 30.6115C40.7161 32.0194 41.2776 33.7199 41.2776 35.5505C41.2776 37.0073 40.9219 38.3812 40.2934 39.5916L41.2271 42.9064C41.3495 43.2967 41.2452 43.7221 40.9559 44.0113C40.6667 44.3006 40.2413 44.4049 39.851 44.2825L36.5362 43.3488C35.3258 43.9773 33.9519 44.333 32.4951 44.333C28.2993 44.333 24.7869 41.3837 23.9185 37.447C23.8016 36.9157 24.0914 36.3783 24.6002 36.1845C26.7311 35.3738 28.375 33.5706 28.9651 31.3404ZM38.1807 32.2253C36.8095 32.9465 35.2484 33.3549 33.5929 33.3549C32.6038 33.3549 31.6482 33.2089 30.7469 32.9377C29.9103 35.0543 28.3218 36.7933 26.3112 37.8224C27.2372 40.3403 29.6584 42.1374 32.4951 42.1374C33.6939 42.1374 34.8186 41.8168 35.7874 41.2558C35.8978 41.1916 36.1893 41.0566 36.6437 41.1192C36.9819 41.1658 37.769 41.3782 38.5457 41.6011C38.3228 40.8244 38.1104 40.0373 38.0637 39.6991C38.0012 39.2447 38.1362 38.9532 38.2004 38.8429C38.7614 37.874 39.082 36.7493 39.082 35.5505C39.082 34.338 38.7537 33.2012 38.1807 32.2253Z" fill="#444444"/>
</svg>
